<svg width="30" height="30" viewBox="0 0 30 30" fill="none" xmlns="http://www.w3.org/2000/svg">
<path d="M15.0002 1.03336e-08C16.3464 -8.05137e-05 17.6416 0.470451 18.6201 1.31507C19.5986 2.15969 20.1862 3.31436 20.2624 4.54222L20.2705 4.81481H28.7841C29.0923 4.8149 29.3889 4.92184 29.6141 5.11403C29.8392 5.30622 29.9762 5.56933 29.9972 5.85019C30.0182 6.13105 29.9217 6.40873 29.7272 6.62711C29.5328 6.84549 29.2548 6.98829 28.9495 7.02667L28.7841 7.03704H27.4933L25.4176 26.3259C25.3136 27.2876 24.8389 28.1841 24.0781 28.8555C23.3174 29.5269 22.3202 29.9294 21.2646 29.9911L20.9792 30H9.02119C7.96301 30 6.93932 29.6562 6.13306 29.0301C5.3268 28.404 4.79052 27.5363 4.62006 26.5822L4.58276 26.3244L2.50544 7.03704H1.21623C0.922329 7.03703 0.638372 6.93979 0.416874 6.76331C0.195377 6.58683 0.0513222 6.34304 0.0113514 6.07704L0 5.92593C1.2394e-05 5.65743 0.106449 5.39801 0.299626 5.19566C0.492803 4.99331 0.759652 4.8617 1.05082 4.82518L1.21623 4.81481H9.72985C9.72985 3.53785 10.2851 2.31318 11.2735 1.41023C12.2619 0.507273 13.6024 1.03336e-08 15.0002 1.03336e-08ZM25.0495 7.03704H4.94925L7.00387 26.1067C7.04937 26.5322 7.25461 26.9302 7.58478 27.2332C7.91495 27.5361 8.3497 27.7254 8.81524 27.7689L9.02119 27.7778H20.9792C21.9522 27.7778 22.7776 27.1481 22.9657 26.2933L22.9981 26.1067L25.0479 7.03704H25.0495ZM17.8381 11.1111C18.132 11.1111 18.4159 11.2084 18.6374 11.3848C18.8589 11.5613 19.003 11.8051 19.0429 12.0711L19.0543 12.2222V22.5926C19.0542 22.8741 18.9371 23.1451 18.7268 23.3508C18.5164 23.5565 18.2284 23.6816 17.921 23.7008C17.6135 23.72 17.3096 23.6318 17.0705 23.4542C16.8315 23.2765 16.6752 23.0226 16.6332 22.7437L16.6218 22.5926V12.2222C16.6218 11.9275 16.75 11.6449 16.9781 11.4365C17.2061 11.2282 17.5155 11.1111 17.8381 11.1111ZM12.1623 11.1111C12.4562 11.1111 12.7402 11.2084 12.9617 11.3848C13.1832 11.5613 13.3272 11.8051 13.3672 12.0711L13.3785 12.2222V22.5926C13.3784 22.8741 13.2614 23.1451 13.051 23.3508C12.8406 23.5565 12.5526 23.6816 12.2452 23.7008C11.9378 23.72 11.6338 23.6318 11.3948 23.4542C11.1557 23.2765 10.9994 23.0226 10.9574 22.7437L10.9461 22.5926V12.2222C10.9461 11.9275 11.0742 11.6449 11.3023 11.4365C11.5304 11.2282 11.8397 11.1111 12.1623 11.1111ZM15.0002 2.22222C14.288 2.22225 13.6018 2.46692 13.0779 2.90767C12.554 3.34843 12.2306 3.95304 12.172 4.60148L12.1623 4.81481H17.8381C17.8381 4.12722 17.5391 3.46778 17.0069 2.98158C16.4747 2.49537 15.7528 2.22222 15.0002 2.22222Z" fill="#E53E3E"/>
</svg>
