<svg width="15" height="16" viewBox="0 0 15 16" fill="none" xmlns="http://www.w3.org/2000/svg">
<path d="M9.5655 6.125C10.29 6.125 10.878 6.713 10.878 7.4375V9.875H10.875V10.0625C10.875 10.2117 10.8157 10.3548 10.7102 10.4602C10.6048 10.5657 10.4617 10.625 10.3125 10.625C10.1633 10.625 10.0202 10.5657 9.91475 10.4602C9.80926 10.3548 9.75 10.2117 9.75 10.0625V8.375H9.753V7.4375C9.753 7.38777 9.73325 7.34008 9.69808 7.30492C9.66292 7.26975 9.61523 7.25 9.5655 7.25H5.439C5.38927 7.25 5.34158 7.26975 5.30642 7.30492C5.27125 7.34008 5.2515 7.38777 5.2515 7.4375V9.875H5.25V10.0625C5.25 10.2117 5.19074 10.3548 5.08525 10.4602C4.97976 10.5657 4.83668 10.625 4.6875 10.625C4.53832 10.625 4.39524 10.5657 4.28975 10.4602C4.18426 10.3548 4.125 10.2117 4.125 10.0625V8.375H4.1265V7.4375C4.1265 6.713 4.71375 6.125 5.439 6.125H9.5655ZM13.875 7.4375V10.0625C13.875 10.2117 13.9343 10.3548 14.0398 10.4602C14.1452 10.5657 14.2883 10.625 14.4375 10.625C14.5867 10.625 14.7298 10.5657 14.8352 10.4602C14.9407 10.3548 15 10.2117 15 10.0625V7.4375C15 7.0894 14.8617 6.75556 14.6156 6.50942C14.3694 6.26328 14.0356 6.125 13.6875 6.125H11.1562C11.4135 6.43625 11.5815 6.824 11.6198 7.25H13.6875C13.7372 7.25 13.7849 7.26975 13.8201 7.30492C13.8552 7.34008 13.875 7.38777 13.875 7.4375ZM0 10.0625C3.14382e-09 10.2117 0.0592632 10.3548 0.164752 10.4602C0.270242 10.5657 0.413316 10.625 0.5625 10.625C0.711684 10.625 0.854758 10.5657 0.960248 10.4602C1.06574 10.3548 1.125 10.2117 1.125 10.0625V7.4375C1.125 7.38777 1.14475 7.34008 1.17992 7.30492C1.21508 7.26975 1.26277 7.25 1.3125 7.25H3.38475C3.42205 6.83679 3.58365 6.44457 3.84825 6.125H1.3125C0.964403 6.125 0.630564 6.26328 0.384422 6.50942C0.138281 6.75556 0 7.0894 0 7.4375V10.0625ZM7.5 0.875C8.09674 0.875 8.66903 1.11205 9.09099 1.53401C9.51295 1.95597 9.75 2.52826 9.75 3.125C9.75 3.72174 9.51295 4.29403 9.09099 4.71599C8.66903 5.13795 8.09674 5.375 7.5 5.375C6.90326 5.375 6.33097 5.13795 5.90901 4.71599C5.48705 4.29403 5.25 3.72174 5.25 3.125C5.25 2.52826 5.48705 1.95597 5.90901 1.53401C6.33097 1.11205 6.90326 0.875 7.5 0.875ZM7.5 2C7.20163 2 6.91548 2.11853 6.7045 2.3295C6.49353 2.54048 6.375 2.82663 6.375 3.125C6.375 3.42337 6.49353 3.70952 6.7045 3.9205C6.91548 4.13147 7.20163 4.25 7.5 4.25C7.79837 4.25 8.08452 4.13147 8.2955 3.9205C8.50647 3.70952 8.625 3.42337 8.625 3.125C8.625 2.82663 8.50647 2.54048 8.2955 2.3295C8.08452 2.11853 7.79837 2 7.5 2ZM12.375 1.625C12.8723 1.625 13.3492 1.82254 13.7008 2.17417C14.0525 2.52581 14.25 3.00272 14.25 3.5C14.25 3.99728 14.0525 4.47419 13.7008 4.82583C13.3492 5.17746 12.8723 5.375 12.375 5.375C11.8777 5.375 11.4008 5.17746 11.0492 4.82583C10.6975 4.47419 10.5 3.99728 10.5 3.5C10.5 3.00272 10.6975 2.52581 11.0492 2.17417C11.4008 1.82254 11.8777 1.625 12.375 1.625ZM12.375 2.75C12.1761 2.75 11.9853 2.82902 11.8447 2.96967C11.704 3.11032 11.625 3.30109 11.625 3.5C11.625 3.69891 11.704 3.88968 11.8447 4.03033C11.9853 4.17098 12.1761 4.25 12.375 4.25C12.5739 4.25 12.7647 4.17098 12.9053 4.03033C13.046 3.88968 13.125 3.69891 13.125 3.5C13.125 3.30109 13.046 3.11032 12.9053 2.96967C12.7647 2.82902 12.5739 2.75 12.375 2.75ZM2.625 1.625C3.12228 1.625 3.59919 1.82254 3.95083 2.17417C4.30246 2.52581 4.5 3.00272 4.5 3.5C4.5 3.99728 4.30246 4.47419 3.95083 4.82583C3.59919 5.17746 3.12228 5.375 2.625 5.375C2.12772 5.375 1.65081 5.17746 1.29917 4.82583C0.947544 4.47419 0.75 3.99728 0.75 3.5C0.75 3.00272 0.947544 2.52581 1.29917 2.17417C1.65081 1.82254 2.12772 1.625 2.625 1.625ZM2.625 2.75C2.42609 2.75 2.23532 2.82902 2.09467 2.96967C1.95402 3.11032 1.875 3.30109 1.875 3.5C1.875 3.69891 1.95402 3.88968 2.09467 4.03033C2.23532 4.17098 2.42609 4.25 2.625 4.25C2.82391 4.25 3.01468 4.17098 3.15533 4.03033C3.29598 3.88968 3.375 3.69891 3.375 3.5C3.375 3.30109 3.29598 3.11032 3.15533 2.96967C3.01468 2.82902 2.82391 2.75 2.625 2.75ZM0.5625 11.375C0.413316 11.375 0.270242 11.4343 0.164752 11.5398C0.0592632 11.6452 0 11.7883 0 11.9375V12.3125C0 13.0584 0.296316 13.7738 0.823762 14.3012C1.35121 14.8287 2.06658 15.125 2.8125 15.125H12.1875C12.9334 15.125 13.6488 14.8287 14.1762 14.3012C14.7037 13.7738 15 13.0584 15 12.3125V11.9375C15 11.7883 14.9407 11.6452 14.8352 11.5398C14.7298 11.4343 14.5867 11.375 14.4375 11.375H0.5625ZM2.8125 14C2.39742 14 1.99691 13.847 1.68753 13.5703C1.37815 13.2935 1.18162 12.9125 1.1355 12.5H13.8645C13.8184 12.9125 13.6218 13.2935 13.3125 13.5703C13.0031 13.847 12.6026 14 12.1875 14H2.8125Z" fill="#00ABD1"/>
</svg>
