<svg width="25" height="24" viewBox="0 0 25 24" fill="none" xmlns="http://www.w3.org/2000/svg">
<path d="M11.3186 0.503768C11.8437 0.172065 12.4175 0 12.9985 0C13.5795 0 14.1533 0.172065 14.6784 0.503768L24.4259 6.66116C24.5957 6.76832 24.7394 6.9371 24.8406 7.14815C24.9418 7.35921 24.9963 7.604 24.998 7.85449C24.9997 8.10497 24.9484 8.35102 24.85 8.56444C24.7517 8.77786 24.6102 8.95002 24.4419 9.06118L14.7424 15.4772C14.2004 15.8358 13.6035 16.0224 12.9985 16.0224C12.3935 16.0224 11.7966 15.8358 11.2546 15.4772L2.99905 10.0159V15.9999C2.99905 16.3535 2.8937 16.6927 2.70617 16.9427C2.51864 17.1928 2.2643 17.3333 1.9991 17.3333C1.7339 17.3333 1.47956 17.1928 1.29203 16.9427C1.10451 16.6927 0.999156 16.3535 0.999156 15.9999V7.93317C0.989859 7.66959 1.03919 7.40821 1.14096 7.1819C1.24272 6.95558 1.39238 6.77441 1.57112 6.66116L11.3186 0.501101V0.503768ZM4.99894 14.3172V18.6666C4.99896 18.842 5.02495 19.0157 5.07539 19.1777C5.12584 19.3397 5.19976 19.4868 5.29292 19.6106L5.29692 19.6186L5.34292 19.6746L5.46291 19.824C6.08966 20.5688 6.76723 21.2339 7.4868 21.8106C8.82273 22.88 10.7526 24 12.9985 24C15.2444 24 17.1743 22.88 18.5122 21.8106C19.2318 21.2339 19.9093 20.5688 20.5361 19.824L20.6561 19.6746L20.6881 19.632L20.7001 19.616L20.7021 19.6133L20.7061 19.6106C20.7989 19.4866 20.8724 19.3393 20.9225 19.1774C20.9726 19.0154 20.9983 18.8418 20.9981 18.6666V14.3146L15.6304 17.8666C14.8123 18.4076 13.9116 18.689 12.9985 18.689C12.0854 18.689 11.1847 18.4076 10.3666 17.8666L4.99894 14.3146V14.3172Z" fill="#718096"/>
</svg>
