<svg width="50" height="51" viewBox="0 0 50 51" fill="none" xmlns="http://www.w3.org/2000/svg">
<circle cx="25" cy="25.0723" r="25" fill="white"/>
<path d="M23.3205 13.5038C23.8456 13.1721 24.4194 13 25.0005 13C25.5815 13 26.1553 13.1721 26.6804 13.5038L36.4278 19.6612C36.5976 19.7683 36.7414 19.9371 36.8425 20.1482C36.9437 20.3592 36.9983 20.604 37 20.8545C37.0016 21.105 36.9503 21.351 36.852 21.5644C36.7536 21.7779 36.6122 21.95 36.4438 22.0612L26.7444 28.4772C26.2024 28.8358 25.6055 29.0224 25.0005 29.0224C24.3954 29.0224 23.7986 28.8358 23.2565 28.4772L15.001 23.0159V28.9999C15.001 29.3535 14.8956 29.6927 14.7081 29.9427C14.5206 30.1928 14.2663 30.3333 14.0011 30.3333C13.7359 30.3333 13.4815 30.1928 13.294 29.9427C13.1065 29.6927 13.0011 29.3535 13.0011 28.9999V20.9332C12.9918 20.6696 13.0411 20.4082 13.1429 20.1819C13.2447 19.9556 13.3943 19.7744 13.5731 19.6612L23.3205 13.5011V13.5038ZM17.0009 27.3172V31.6666C17.0009 31.842 17.0269 32.0157 17.0773 32.1777C17.1278 32.3397 17.2017 32.4868 17.2949 32.6106L17.2989 32.6186L17.3449 32.6746L17.4649 32.824C18.0916 33.5688 18.7692 34.2339 19.4888 34.8106C20.8247 35.88 22.7546 37 25.0005 37C27.2463 37 29.1762 35.88 30.5142 34.8106C31.2337 34.2339 31.9113 33.5688 32.538 32.824L32.658 32.6746L32.69 32.632L32.702 32.616L32.704 32.6133L32.708 32.6106C32.8008 32.4866 32.8744 32.3393 32.9245 32.1774C32.9746 32.0154 33.0002 31.8418 33 31.6666V27.3146L27.6323 30.8666C26.8143 31.4076 25.9135 31.689 25.0005 31.689C24.0874 31.689 23.1866 31.4076 22.3686 30.8666L17.0009 27.3146V27.3172Z" fill="url(#paint0_linear_3728_6647)"/>
<defs>
<linearGradient id="paint0_linear_3728_6647" x1="24.984" y1="53.4854" x2="59.0438" y2="28.3403" gradientUnits="userSpaceOnUse">
<stop stop-color="#13547A"/>
<stop offset="1" stop-color="#00ABD1"/>
</linearGradient>
</defs>
</svg>
