<svg width="15" height="14" viewBox="0 0 15 14" fill="none" xmlns="http://www.w3.org/2000/svg">
<path d="M8.11963 7.62466C8.61689 7.62466 9.09378 7.82219 9.44539 8.17381C9.79701 8.52542 9.99455 9.00232 9.99455 9.49957L9.9933 10.4345C10.122 12.7307 8.35337 13.8756 5.07477 13.8756C1.80742 13.8744 0 12.7457 0 10.4683V9.49957C0 9.00232 0.197535 8.52542 0.54915 8.17381C0.900765 7.82219 1.37766 7.62466 1.87491 7.62466H8.11963ZM13.1194 7.62466C13.6167 7.62466 14.0936 7.82219 14.4452 8.17381C14.7968 8.52542 14.9943 9.00232 14.9943 9.49957V10.1583C15.1068 12.217 13.5444 13.2494 10.6895 13.2494C10.302 13.2494 9.93705 13.2307 9.59706 13.1932C9.95955 12.8582 10.2308 12.4594 10.4033 11.9957L10.6895 11.9995C12.9194 11.9995 13.8106 11.4107 13.7444 10.192V9.49957C13.7444 9.33382 13.6785 9.17486 13.5613 9.05765C13.4441 8.94045 13.2852 8.8746 13.1194 8.8746H10.5408C10.4153 8.39044 10.1476 7.95503 9.77206 7.62466H13.1194ZM8.11963 8.8746H1.87491C1.70916 8.8746 1.5502 8.94045 1.43299 9.05765C1.31579 9.17486 1.24994 9.33382 1.24994 9.49957V10.4683C1.24994 11.8995 2.40989 12.6244 5.07477 12.6244C7.72965 12.6244 8.8246 11.9157 8.7446 10.4683V9.49957C8.7446 9.33382 8.67876 9.17486 8.56155 9.05765C8.44435 8.94045 8.28538 8.8746 8.11963 8.8746ZM4.99977 0.125C5.82854 0.125 6.62336 0.454225 7.20938 1.04025C7.79541 1.62627 8.12463 2.42109 8.12463 3.24986C8.12463 4.07862 7.79541 4.87344 7.20938 5.45947C6.62336 6.04549 5.82854 6.37472 4.99977 6.37472C4.17101 6.37472 3.37619 6.04549 2.79016 5.45947C2.20414 4.87344 1.87491 4.07862 1.87491 3.24986C1.87491 2.42109 2.20414 1.62627 2.79016 1.04025C3.37619 0.454225 4.17101 0.125 4.99977 0.125ZM11.2495 1.37494C11.9125 1.37494 12.5484 1.63832 13.0172 2.10714C13.486 2.57596 13.7494 3.21182 13.7494 3.87483C13.7494 4.53784 13.486 5.1737 13.0172 5.64252C12.5484 6.11134 11.9125 6.37472 11.2495 6.37472C10.5865 6.37472 9.95062 6.11134 9.4818 5.64252C9.01298 5.1737 8.7496 4.53784 8.7496 3.87483C8.7496 3.21182 9.01298 2.57596 9.4818 2.10714C9.95062 1.63832 10.5865 1.37494 11.2495 1.37494ZM4.99977 1.37494C4.50251 1.37494 4.02562 1.57248 3.67401 1.92409C3.32239 2.27571 3.12486 2.7526 3.12486 3.24986C3.12486 3.74712 3.32239 4.22401 3.67401 4.57562C4.02562 4.92724 4.50251 5.12477 4.99977 5.12477C5.49703 5.12477 5.97392 4.92724 6.32554 4.57562C6.67715 4.22401 6.87469 3.74712 6.87469 3.24986C6.87469 2.7526 6.67715 2.27571 6.32554 1.92409C5.97392 1.57248 5.49703 1.37494 4.99977 1.37494ZM11.2495 2.62489C10.918 2.62489 10.6001 2.75658 10.3656 2.99099C10.1312 3.2254 9.99955 3.54332 9.99955 3.87483C9.99955 4.20634 10.1312 4.52426 10.3656 4.75867C10.6001 4.99308 10.918 5.12477 11.2495 5.12477C11.581 5.12477 11.8989 4.99308 12.1333 4.75867C12.3677 4.52426 12.4994 4.20634 12.4994 3.87483C12.4994 3.54332 12.3677 3.2254 12.1333 2.99099C11.8989 2.75658 11.581 2.62489 11.2495 2.62489Z" fill="#00ABD1"/>
</svg>
