<svg width="50" height="51" viewBox="0 0 50 51" fill="none" xmlns="http://www.w3.org/2000/svg">
<circle cx="25" cy="25.0723" r="25" fill="url(#paint0_linear_3728_6634)"/>
<path d="M31.8877 18C31.2041 18 30.6187 17.755 30.1314 17.265C29.645 16.7758 29.4018 16.1875 29.4018 15.5C29.4018 14.8125 29.645 14.2237 30.1314 13.7337C30.6187 13.2446 31.2041 13 31.8877 13C32.5714 13 33.1568 13.2446 33.6441 13.7337C34.1305 14.2237 34.3737 14.8125 34.3737 15.5C34.3737 16.1875 34.1305 16.7758 33.6441 17.265C33.1568 17.755 32.5714 18 31.8877 18ZM30.6448 38V28C30.6448 27.1667 30.4326 26.4167 30.0084 25.75C29.5833 25.0833 29.0392 24.5625 28.3763 24.1875L29.4639 20.9688C29.6297 20.4479 29.9354 20.0312 30.3813 19.7188C30.8262 19.4062 31.3284 19.25 31.8877 19.25C32.4471 19.25 32.9493 19.4062 33.3942 19.7188C33.8401 20.0312 34.1458 20.4479 34.3116 20.9688L36.9218 28.8438C37.0668 29.2604 37.0101 29.6404 36.7515 29.9837C36.4922 30.3279 36.1553 30.5 35.741 30.5H34.3737V36.75C34.3737 37.1042 34.2544 37.4008 34.0157 37.64C33.7779 37.88 33.4829 38 33.1307 38H30.6448ZM25.0513 24.875C24.5334 24.875 24.0934 24.6925 23.7313 24.3275C23.3683 23.9633 23.1869 23.5208 23.1869 23C23.1869 22.4792 23.3683 22.0367 23.7313 21.6725C24.0934 21.3075 24.5334 21.125 25.0513 21.125C25.5692 21.125 26.0093 21.3075 26.3714 21.6725C26.7343 22.0367 26.9158 22.4792 26.9158 23C26.9158 23.5208 26.7343 23.9633 26.3714 24.3275C26.0093 24.6925 25.5692 24.875 25.0513 24.875ZM16.3504 18C15.6668 18 15.0818 17.755 14.5954 17.265C14.1081 16.7758 13.8645 16.1875 13.8645 15.5C13.8645 14.8125 14.1081 14.2237 14.5954 13.7337C15.0818 13.2446 15.6668 13 16.3504 13C17.0341 13 17.6191 13.2446 18.1055 13.7337C18.5928 14.2237 18.8364 14.8125 18.8364 15.5C18.8364 16.1875 18.5928 16.7758 18.1055 17.265C17.6191 17.755 17.0341 18 16.3504 18ZM15.1075 38C14.7553 38 14.4603 37.88 14.2225 37.64C13.9838 37.4008 13.8645 37.1042 13.8645 36.75V29.25H13.243C12.8908 29.25 12.5958 29.13 12.358 28.89C12.1193 28.6508 12 28.3542 12 28V21.75C12 21.0625 12.2436 20.4737 12.7309 19.9837C13.2173 19.4946 13.8023 19.25 14.486 19.25H18.2149C18.8986 19.25 19.4836 19.4946 19.97 19.9837C20.4573 20.4737 20.7009 21.0625 20.7009 21.75V28C20.7009 28.3542 20.582 28.6508 20.3442 28.89C20.1055 29.13 19.8101 29.25 19.4579 29.25H18.8364V36.75C18.8364 37.1042 18.7175 37.4008 18.4797 37.64C18.241 37.88 17.9456 38 17.5934 38H15.1075ZM24.4298 38C24.0777 38 23.7827 37.88 23.5448 37.64C23.3062 37.4008 23.1869 37.1042 23.1869 36.75V33C22.8347 33 22.5397 32.88 22.3019 32.64C22.0632 32.4008 21.9439 32.1042 21.9439 31.75V28C21.9439 27.4792 22.1253 27.0367 22.4883 26.6725C22.8504 26.3075 23.2904 26.125 23.8084 26.125H26.2943C26.8122 26.125 27.2522 26.3075 27.6144 26.6725C27.9773 27.0367 28.1588 27.4792 28.1588 28V31.75C28.1588 32.1042 28.0399 32.4008 27.8021 32.64C27.5634 32.88 27.268 33 26.9158 33V36.75C26.9158 37.1042 26.7969 37.4008 26.5591 37.64C26.3204 37.88 26.025 38 25.6728 38H24.4298Z" fill="white"/>
<defs>
<linearGradient id="paint0_linear_3728_6634" x1="24.9667" y1="84.4169" x2="95.9245" y2="32.0313" gradientUnits="userSpaceOnUse">
<stop stop-color="#13547A"/>
<stop offset="1" stop-color="#00ABD1"/>
</linearGradient>
</defs>
</svg>
