<svg width="50" height="51" viewBox="0 0 50 51" fill="none" xmlns="http://www.w3.org/2000/svg">
<circle cx="25" cy="25.0723" r="25" fill="white"/>
<path d="M32.3741 18C31.6904 18 31.105 17.755 30.6177 17.265C30.1313 16.7758 29.8881 16.1875 29.8881 15.5C29.8881 14.8125 30.1313 14.2237 30.6177 13.7337C31.105 13.2446 31.6904 13 32.3741 13C33.0577 13 33.6432 13.2446 34.1304 13.7337C34.6168 14.2237 34.86 14.8125 34.86 15.5C34.86 16.1875 34.6168 16.7758 34.1304 17.265C33.6432 17.755 33.0577 18 32.3741 18ZM31.1311 38V28C31.1311 27.1667 30.919 26.4167 30.4947 25.75C30.0696 25.0833 29.5256 24.5625 28.8626 24.1875L29.9503 20.9688C30.116 20.4479 30.4218 20.0312 30.8676 19.7188C31.3126 19.4062 31.8147 19.25 32.3741 19.25C32.9334 19.25 33.4356 19.4062 33.8806 19.7188C34.3264 20.0312 34.6322 20.4479 34.7979 20.9688L37.4082 28.8438C37.5532 29.2604 37.4964 29.6404 37.2379 29.9837C36.9785 30.3279 36.6417 30.5 36.2273 30.5H34.86V36.75C34.86 37.1042 34.7407 37.4008 34.5021 37.64C34.2642 37.88 33.9692 38 33.6171 38H31.1311ZM25.5377 24.875C25.0198 24.875 24.5797 24.6925 24.2176 24.3275C23.8547 23.9633 23.6732 23.5208 23.6732 23C23.6732 22.4792 23.8547 22.0367 24.2176 21.6725C24.5797 21.3075 25.0198 21.125 25.5377 21.125C26.0556 21.125 26.4956 21.3075 26.8577 21.6725C27.2207 22.0367 27.4021 22.4792 27.4021 23C27.4021 23.5208 27.2207 23.9633 26.8577 24.3275C26.4956 24.6925 26.0556 24.875 25.5377 24.875ZM16.8368 18C16.1531 18 15.5681 17.755 15.0817 17.265C14.5944 16.7758 14.3508 16.1875 14.3508 15.5C14.3508 14.8125 14.5944 14.2237 15.0817 13.7337C15.5681 13.2446 16.1531 13 16.8368 13C17.5204 13 18.1054 13.2446 18.5919 13.7337C19.0791 14.2237 19.3227 14.8125 19.3227 15.5C19.3227 16.1875 19.0791 16.7758 18.5919 17.265C18.1054 17.755 17.5204 18 16.8368 18ZM15.5938 38C15.2416 38 14.9466 37.88 14.7088 37.64C14.4701 37.4008 14.3508 37.1042 14.3508 36.75V29.25H13.7293C13.3771 29.25 13.0821 29.13 12.8443 28.89C12.6057 28.6508 12.4863 28.3542 12.4863 28V21.75C12.4863 21.0625 12.73 20.4737 13.2172 19.9837C13.7036 19.4946 14.2887 19.25 14.9723 19.25H18.7012C19.3849 19.25 19.9699 19.4946 20.4563 19.9837C20.9436 20.4737 21.1872 21.0625 21.1872 21.75V28C21.1872 28.3542 21.0683 28.6508 20.8305 28.89C20.5918 29.13 20.2964 29.25 19.9442 29.25H19.3227V36.75C19.3227 37.1042 19.2038 37.4008 18.966 37.64C18.7274 37.88 18.4319 38 18.0798 38H15.5938ZM24.9162 38C24.564 38 24.269 37.88 24.0312 37.64C23.7925 37.4008 23.6732 37.1042 23.6732 36.75V33C23.321 33 23.026 32.88 22.7882 32.64C22.5495 32.4008 22.4302 32.1042 22.4302 31.75V28C22.4302 27.4792 22.6117 27.0367 22.9746 26.6725C23.3368 26.3075 23.7768 26.125 24.2947 26.125H26.7806C27.2986 26.125 27.7386 26.3075 28.1007 26.6725C28.4636 27.0367 28.6451 27.4792 28.6451 28V31.75C28.6451 32.1042 28.5262 32.4008 28.2884 32.64C28.0497 32.88 27.7543 33 27.4021 33V36.75C27.4021 37.1042 27.2832 37.4008 27.0454 37.64C26.8068 37.88 26.5113 38 26.1592 38H24.9162Z" fill="url(#paint0_linear_3728_6617)"/>
<defs>
<linearGradient id="paint0_linear_3728_6617" x1="24.9697" y1="55.1723" x2="60.4486" y2="28.9795" gradientUnits="userSpaceOnUse">
<stop stop-color="#13547A"/>
<stop offset="1" stop-color="#00ABD1"/>
</linearGradient>
</defs>
</svg>
