<svg width="25" height="25" viewBox="0 0 25 25" fill="none" xmlns="http://www.w3.org/2000/svg">
<path d="M19.8877 5C19.2041 5 18.6187 4.755 18.1314 4.265C17.645 3.77583 17.4018 3.1875 17.4018 2.5C17.4018 1.8125 17.645 1.22375 18.1314 0.73375C18.6187 0.244583 19.2041 0 19.8877 0C20.5714 0 21.1568 0.244583 21.6441 0.73375C22.1305 1.22375 22.3737 1.8125 22.3737 2.5C22.3737 3.1875 22.1305 3.77583 21.6441 4.265C21.1568 4.755 20.5714 5 19.8877 5ZM18.6448 25V15C18.6448 14.1667 18.4326 13.4167 18.0084 12.75C17.5833 12.0833 17.0392 11.5625 16.3763 11.1875L17.4639 7.96875C17.6297 7.44792 17.9354 7.03125 18.3813 6.71875C18.8262 6.40625 19.3284 6.25 19.8877 6.25C20.4471 6.25 20.9493 6.40625 21.3942 6.71875C21.8401 7.03125 22.1458 7.44792 22.3116 7.96875L24.9218 15.8438C25.0668 16.2604 25.0101 16.6404 24.7515 16.9837C24.4922 17.3279 24.1553 17.5 23.741 17.5H22.3737V23.75C22.3737 24.1042 22.2544 24.4008 22.0157 24.64C21.7779 24.88 21.4829 25 21.1307 25H18.6448ZM13.0513 11.875C12.5334 11.875 12.0934 11.6925 11.7313 11.3275C11.3683 10.9633 11.1869 10.5208 11.1869 10C11.1869 9.47917 11.3683 9.03667 11.7313 8.6725C12.0934 8.3075 12.5334 8.125 13.0513 8.125C13.5692 8.125 14.0093 8.3075 14.3714 8.6725C14.7343 9.03667 14.9158 9.47917 14.9158 10C14.9158 10.5208 14.7343 10.9633 14.3714 11.3275C14.0093 11.6925 13.5692 11.875 13.0513 11.875ZM4.35044 5C3.6668 5 3.08177 4.755 2.59535 4.265C2.1081 3.77583 1.86448 3.1875 1.86448 2.5C1.86448 1.8125 2.1081 1.22375 2.59535 0.73375C3.08177 0.244583 3.6668 0 4.35044 0C5.03409 0 5.61912 0.244583 6.10554 0.73375C6.59279 1.22375 6.83641 1.8125 6.83641 2.5C6.83641 3.1875 6.59279 3.77583 6.10554 4.265C5.61912 4.755 5.03409 5 4.35044 5ZM3.10746 25C2.75528 25 2.46028 24.88 2.22246 24.64C1.9838 24.4008 1.86448 24.1042 1.86448 23.75V16.25H1.24298C0.890805 16.25 0.595804 16.13 0.35798 15.89C0.119327 15.6508 0 15.3542 0 15V8.75C0 8.0625 0.243625 7.47375 0.730875 6.98375C1.2173 6.49458 1.80233 6.25 2.48597 6.25H6.21492C6.89856 6.25 7.48359 6.49458 7.97002 6.98375C8.45726 7.47375 8.70089 8.0625 8.70089 8.75V15C8.70089 15.3542 8.58198 15.6508 8.34415 15.89C8.1055 16.13 7.81008 16.25 7.45791 16.25H6.83641V23.75C6.83641 24.1042 6.7175 24.4008 6.47968 24.64C6.24102 24.88 5.94561 25 5.59343 25H3.10746ZM12.4298 25C12.0777 25 11.7827 24.88 11.5448 24.64C11.3062 24.4008 11.1869 24.1042 11.1869 23.75V20C10.8347 20 10.5397 19.88 10.3019 19.64C10.0632 19.4008 9.94387 19.1042 9.94387 18.75V15C9.94387 14.4792 10.1253 14.0367 10.4883 13.6725C10.8504 13.3075 11.2904 13.125 11.8084 13.125H14.2943C14.8122 13.125 15.2522 13.3075 15.6144 13.6725C15.9773 14.0367 16.1588 14.4792 16.1588 15V18.75C16.1588 19.1042 16.0399 19.4008 15.8021 19.64C15.5634 19.88 15.268 20 14.9158 20V23.75C14.9158 24.1042 14.7969 24.4008 14.5591 24.64C14.3204 24.88 14.025 25 13.6728 25H12.4298Z" fill="#718096"/>
</svg>
