<svg width="24" height="24" viewBox="0 0 24 24" fill="none" xmlns="http://www.w3.org/2000/svg">
<path d="M19.0922 4.8C18.4359 4.8 17.8739 4.5648 17.4062 4.0944C16.9392 3.6248 16.7057 3.06 16.7057 2.4C16.7057 1.74 16.9392 1.1748 17.4062 0.7044C17.8739 0.2348 18.4359 0 19.0922 0C19.7485 0 20.3106 0.2348 20.7783 0.7044C21.2453 1.1748 21.4788 1.74 21.4788 2.4C21.4788 3.06 21.2453 3.6248 20.7783 4.0944C20.3106 4.5648 19.7485 4.8 19.0922 4.8ZM17.899 24V14.4C17.899 13.6 17.6953 12.88 17.288 12.24C16.8799 11.6 16.3577 11.1 15.7213 10.74L16.7654 7.65C16.9245 7.15 17.218 6.75 17.646 6.45C18.0732 6.15 18.5553 6 19.0922 6C19.6292 6 20.1113 6.15 20.5385 6.45C20.9665 6.75 21.26 7.15 21.4191 7.65L23.925 15.21C24.0642 15.61 24.0097 15.9748 23.7615 16.3044C23.5125 16.6348 23.1891 16.8 22.7914 16.8H21.4788V22.8C21.4788 23.14 21.3642 23.4248 21.1351 23.6544C20.9068 23.8848 20.6236 24 20.2855 24H17.899ZM12.5293 11.4C12.0321 11.4 11.6097 11.2248 11.262 10.8744C10.9136 10.5248 10.7394 10.1 10.7394 9.6C10.7394 9.1 10.9136 8.6752 11.262 8.3256C11.6097 7.9752 12.0321 7.8 12.5293 7.8C13.0265 7.8 13.4489 7.9752 13.7965 8.3256C14.145 8.6752 14.3192 9.1 14.3192 9.6C14.3192 10.1 14.145 10.5248 13.7965 10.8744C13.4489 11.2248 13.0265 11.4 12.5293 11.4ZM4.17643 4.8C3.52013 4.8 2.9585 4.5648 2.49154 4.0944C2.02378 3.6248 1.7899 3.06 1.7899 2.4C1.7899 1.74 2.02378 1.1748 2.49154 0.7044C2.9585 0.2348 3.52013 0 4.17643 0C4.83272 0 5.39435 0.2348 5.86132 0.7044C6.32908 1.1748 6.56296 1.74 6.56296 2.4C6.56296 3.06 6.32908 3.6248 5.86132 4.0944C5.39435 4.5648 4.83272 4.8 4.17643 4.8ZM2.98316 24C2.64507 24 2.36187 23.8848 2.13356 23.6544C1.90445 23.4248 1.7899 23.14 1.7899 22.8V15.6H1.19326C0.855173 15.6 0.571972 15.4848 0.34366 15.2544C0.114554 15.0248 0 14.74 0 14.4L0 8.4C0 7.74 0.23388 7.1748 0.70164 6.7044C1.1686 6.2348 1.73023 6 2.38653 6H5.96632C6.62262 6 7.18425 6.2348 7.65121 6.7044C8.11897 7.1748 8.35285 7.74 8.35285 8.4V14.4C8.35285 14.74 8.2387 15.0248 8.01039 15.2544C7.78128 15.4848 7.49768 15.6 7.15959 15.6H6.56296V22.8C6.56296 23.14 6.4488 23.4248 6.22049 23.6544C5.99138 23.8848 5.70778 24 5.36969 24H2.98316ZM11.9326 24C11.5946 24 11.3114 23.8848 11.083 23.6544C10.8539 23.4248 10.7394 23.14 10.7394 22.8V19.2C10.4013 19.2 10.1181 19.0848 9.88978 18.8544C9.66067 18.6248 9.54612 18.34 9.54612 18V14.4C9.54612 13.9 9.72034 13.4752 10.0688 13.1256C10.4164 12.7752 10.8388 12.6 11.336 12.6H13.7225C14.2197 12.6 14.6422 12.7752 14.9898 13.1256C15.3382 13.4752 15.5124 13.9 15.5124 14.4V18C15.5124 18.34 15.3983 18.6248 15.17 18.8544C14.9409 19.0848 14.6573 19.2 14.3192 19.2V22.8C14.3192 23.14 14.205 23.4248 13.9767 23.6544C13.7476 23.8848 13.464 24 13.1259 24H11.9326Z" fill="#718096"/>
</svg>
