<svg width="71" height="77" viewBox="0 0 71 77" fill="none" xmlns="http://www.w3.org/2000/svg">
<g filter="url(#filter0_d_2864_4315)">
<path fill-rule="evenodd" clip-rule="evenodd" d="M27.1884 33.8982C33.0429 33.8982 37.789 29.22 37.789 23.4491C37.789 17.6782 33.0429 13 27.1884 13C21.3339 13 16.5879 17.6782 16.5879 23.4491C16.5879 29.22 21.3339 33.8982 27.1884 33.8982Z" fill="url(#paint0_linear_2864_4315)"/>
<path d="M37.0578 23.4491C37.0578 28.8063 32.6491 33.167 27.1884 33.167C21.7278 33.167 17.3191 28.8063 17.3191 23.4491C17.3191 18.0919 21.7278 13.7312 27.1884 13.7312C32.6491 13.7312 37.0578 18.0919 37.0578 23.4491Z" stroke="url(#paint1_linear_2864_4315)" stroke-opacity="0.5" strokeWidth="1.46237"/>
</g>
<g filter="url(#filter1_d_2864_4315)">
<path fill-rule="evenodd" clip-rule="evenodd" d="M27.2014 59.7958C33.8192 59.7958 39.1841 54.5076 39.1841 47.9843C39.1841 41.461 33.8192 36.1729 27.2014 36.1729C20.5836 36.1729 15.2187 41.461 15.2187 47.9843C15.2187 54.5076 20.5836 59.7958 27.2014 59.7958Z" fill="url(#paint2_linear_2864_4315)"/>
<path d="M38.4529 47.9843C38.4529 54.0939 33.4254 59.0646 27.2014 59.0646C20.9774 59.0646 15.9499 54.0939 15.9499 47.9843C15.9499 41.8747 20.9774 36.904 27.2014 36.904C33.4254 36.904 38.4529 41.8747 38.4529 47.9843Z" stroke="url(#paint3_linear_2864_4315)" stroke-opacity="0.5" strokeWidth="1.46237"/>
</g>
<g filter="url(#filter2_d_2864_4315)">
<path fill-rule="evenodd" clip-rule="evenodd" d="M47.5144 42.4738C52.1154 42.4738 55.8452 38.7468 55.8452 34.1495C55.8452 29.5521 52.1154 25.8252 47.5144 25.8252C42.9134 25.8252 39.1836 29.5521 39.1836 34.1495C39.1836 38.7468 42.9134 42.4738 47.5144 42.4738Z" fill="url(#paint4_linear_2864_4315)"/>
<path d="M55.114 34.1495C55.114 38.3425 51.7121 41.7426 47.5144 41.7426C43.3167 41.7426 39.9148 38.3425 39.9148 34.1495C39.9148 29.9565 43.3167 26.5564 47.5144 26.5564C51.7121 26.5564 55.114 29.9565 55.114 34.1495Z" stroke="url(#paint5_linear_2864_4315)" stroke-opacity="0.5" strokeWidth="1.46237"/>
</g>
<defs>
<filter id="filter0_d_2864_4315" x="1.96416" y="0.813558" width="50.4486" height="50.1459" filterUnits="userSpaceOnUse" color-interpolation-filters="sRGB">
<feFlood flood-opacity="0" result="BackgroundImageFix"/>
<feColorMatrix in="SourceAlpha" type="matrix" values="0 0 0 0 0 0 0 0 0 0 0 0 0 0 0 0 0 0 127 0" result="hardAlpha"/>
<feOffset dy="2.43729"/>
<feGaussianBlur stdDeviation="7.31187"/>
<feColorMatrix type="matrix" values="0 0 0 0 0 0 0 0 0 0 0 0 0 0 0 0 0 0 0.08 0"/>
<feBlend mode="normal" in2="BackgroundImageFix" result="effect1_dropShadow_2864_4315"/>
<feBlend mode="normal" in="SourceGraphic" in2="effect1_dropShadow_2864_4315" result="shape"/>
</filter>
<filter id="filter1_d_2864_4315" x="0.595019" y="23.9864" width="53.2123" height="52.8705" filterUnits="userSpaceOnUse" color-interpolation-filters="sRGB">
<feFlood flood-opacity="0" result="BackgroundImageFix"/>
<feColorMatrix in="SourceAlpha" type="matrix" values="0 0 0 0 0 0 0 0 0 0 0 0 0 0 0 0 0 0 127 0" result="hardAlpha"/>
<feOffset dy="2.43729"/>
<feGaussianBlur stdDeviation="7.31187"/>
<feColorMatrix type="matrix" values="0 0 0 0 0 0 0 0 0 0 0 0 0 0 0 0 0 0 0.08 0"/>
<feBlend mode="normal" in2="BackgroundImageFix" result="effect1_dropShadow_2864_4315"/>
<feBlend mode="normal" in="SourceGraphic" in2="effect1_dropShadow_2864_4315" result="shape"/>
</filter>
<filter id="filter2_d_2864_4315" x="24.5599" y="13.6388" width="45.9096" height="45.8959" filterUnits="userSpaceOnUse" color-interpolation-filters="sRGB">
<feFlood flood-opacity="0" result="BackgroundImageFix"/>
<feColorMatrix in="SourceAlpha" type="matrix" values="0 0 0 0 0 0 0 0 0 0 0 0 0 0 0 0 0 0 127 0" result="hardAlpha"/>
<feOffset dy="2.43729"/>
<feGaussianBlur stdDeviation="7.31187"/>
<feColorMatrix type="matrix" values="0 0 0 0 0 0 0 0 0 0 0 0 0 0 0 0 0 0 0.08 0"/>
<feBlend mode="normal" in2="BackgroundImageFix" result="effect1_dropShadow_2864_4315"/>
<feBlend mode="normal" in="SourceGraphic" in2="effect1_dropShadow_2864_4315" result="shape"/>
</filter>
<linearGradient id="paint0_linear_2864_4315" x1="32.9969" y1="11.588" x2="25.4206" y2="42.6119" gradientUnits="userSpaceOnUse">
<stop offset="0.346875" stop-color="#5AA2F8"/>
<stop offset="1" stop-color="#2652C2" stop-opacity="0"/>
</linearGradient>
<linearGradient id="paint1_linear_2864_4315" x1="27.1884" y1="13" x2="27.1884" y2="33.8982" gradientUnits="userSpaceOnUse">
<stop stop-color="#ACD6F4"/>
<stop offset="1" stop-color="#3E6991" stop-opacity="0.46"/>
</linearGradient>
<linearGradient id="paint2_linear_2864_4315" x1="33.7672" y1="34.5767" x2="25.2031" y2="69.6456" gradientUnits="userSpaceOnUse">
<stop stop-color="#0EE4F1"/>
<stop offset="1" stop-color="#1AA6E2" stop-opacity="0"/>
</linearGradient>
<linearGradient id="paint3_linear_2864_4315" x1="27.2014" y1="36.1729" x2="27.2014" y2="59.7958" gradientUnits="userSpaceOnUse">
<stop stop-color="#ACD6F4"/>
<stop offset="1" stop-color="#3E6991" stop-opacity="0.46"/>
</linearGradient>
<linearGradient id="paint4_linear_2864_4315" x1="52.0792" y1="24.7003" x2="45.9704" y2="49.3772" gradientUnits="userSpaceOnUse">
<stop offset="0.310417" stop-color="#1DE9B8"/>
<stop offset="1" stop-color="#2A8670" stop-opacity="0"/>
</linearGradient>
<linearGradient id="paint5_linear_2864_4315" x1="47.5144" y1="25.8252" x2="47.5144" y2="42.4738" gradientUnits="userSpaceOnUse">
<stop stop-color="#ACD6F4"/>
<stop offset="1" stop-color="#3E6991" stop-opacity="0.46"/>
</linearGradient>
</defs>
</svg>