<svg width="15" height="16" viewBox="0 0 15 16" fill="none" xmlns="http://www.w3.org/2000/svg">
<path d="M8.5 8.25C8.5 8.80313 8.05313 9.25 7.5 9.25C6.94688 9.25 6.5 8.80313 6.5 8.25V1.25C6.5 0.697812 6.94688 0.25 7.5 0.25C8.05313 0.25 8.5 0.697812 8.5 1.25V8.25ZM2 8.25C2 11.2875 4.4625 13.75 7.5 13.75C10.5375 13.75 13 11.2875 13 8.25C13 6.55 12.2281 5.02812 11.0156 4.01875C10.5906 3.66562 10.5312 3.03531 10.8844 2.61063C11.2375 2.18594 11.8687 2.12813 12.2937 2.48125C13.9437 3.85625 15 5.93125 15 8.22188C15 12.3906 11.6406 15.75 7.5 15.75C3.35938 15.75 0 12.3906 0 8.22188C0 5.93125 1.05469 3.85625 2.70625 2.48125C3.13125 2.12813 3.7625 2.18594 4.11562 2.61063C4.44062 3.03531 4.40938 3.66562 3.98438 4.01875C2.77187 5.02812 2 6.55 2 8.25Z" fill="#00ABD1"/>
</svg>
