<svg width="60" height="60" viewBox="0 0 60 60" fill="none" xmlns="http://www.w3.org/2000/svg">
<g clip-path="url(#clip0_1722_4591)">
<path d="M44.7902 0C37.7842 0 16.9272 6.854 11.8942 8.531C5.21419 10.574 1.2002 16.929 1.2002 25.087V40.262L28.0342 45.535V58.859L36.4242 60L42.4692 54.298V41.884L61.2002 30.789V15.967C61.2002 5.891 55.0962 0 44.7902 0ZM34.1772 25.774L32.2302 24.353L33.4792 21.745C33.8382 23.05 34.0732 24.4 34.1772 25.774ZM9.40219 16.216L29.7262 14.385C31.0383 16.0137 32.0867 17.8382 32.8332 19.792L30.6872 24.275L30.6862 24.278L30.6812 24.29L28.5772 28.957L23.4912 25.837L8.8682 16.382C9.0142 16.299 9.1902 16.237 9.40219 16.216ZM7.4332 39.574L12.1132 37.516L12.9162 40.327C12.9512 40.451 13.0072 40.561 13.0522 40.679L7.4332 39.574ZM14.2912 39.946L8.2012 18.638C8.09929 18.2944 8.07067 17.9333 8.11719 17.578L22.1742 26.667L19.7902 31.296L14.8172 40.952C14.5739 40.6568 14.3948 40.3142 14.2912 39.946ZM16.0442 41.682L20.6242 32.788L23.3842 27.43L28.5202 30.578C28.5974 30.6236 28.6826 30.6542 28.7712 30.668L28.8402 30.678C28.8602 30.679 28.8782 30.685 28.8982 30.685C29.0355 30.6851 29.1699 30.6457 29.2855 30.5716C29.4011 30.4975 29.4929 30.3918 29.5502 30.267L31.6252 25.663L33.0282 26.687L34.2412 27.573V35.239L16.7292 41.61C16.5102 41.6899 16.275 41.7146 16.0442 41.682ZM19.7742 42L32.3372 37.43V44.468L19.7742 42ZM34.5182 57.849L29.9392 57.226V45.908L34.2412 46.754V46.756L34.5182 46.592V57.849ZM49.0352 10.604L38.3022 14.609L38.3102 32.123L35.7092 33.385V6.019L49.0422 1.509L49.0352 10.604Z" fill="url(#paint0_linear_1722_4591)"/>
</g>
<defs>
<linearGradient id="paint0_linear_1722_4591" x1="31.1602" y1="101.214" x2="116.31" y2="38.3508" gradientUnits="userSpaceOnUse">
<stop stop-color="#13547A"/>
<stop offset="1" stop-color="#00ABD1"/>
</linearGradient>
<clipPath id="clip0_1722_4591">
<rect width="60" height="60" fill="white"/>
</clipPath>
</defs>
</svg>
