<svg width="509" height="312" viewBox="0 0 509 312" fill="none" xmlns="http://www.w3.org/2000/svg">
<path d="M261.55 155C260.817 155 260.2 154.75 259.7 154.25C259.233 153.75 259 153.133 259 152.4L259 118.55C259 117.783 259.233 117.167 259.7 116.7C260.2 116.2 260.817 115.95 261.55 115.95C262.35 115.95 263.017 116.267 263.55 116.9L285.35 145.9L285.35 118.55C285.35 117.783 285.6 117.167 286.1 116.7C286.6 116.2 287.217 115.95 287.95 115.95C288.717 115.95 289.333 116.2 289.8 116.7C290.267 117.167 290.5 117.783 290.5 118.55L290.5 152.4C290.5 153.133 290.267 153.75 289.8 154.25C289.333 154.75 288.717 155 287.95 155C287.617 155 287.25 154.933 286.85 154.8C286.483 154.633 286.183 154.4 285.95 154.1L264.15 125.1L264.15 152.4C264.15 153.133 263.9 153.75 263.4 154.25C262.933 154.75 262.317 155 261.55 155ZM314.184 155.2C311.417 155.2 308.951 154.617 306.784 153.45C304.651 152.25 302.967 150.617 301.734 148.55C300.534 146.45 299.934 144.05 299.934 141.35C299.934 138.617 300.501 136.217 301.634 134.15C302.801 132.05 304.401 130.417 306.434 129.25C308.467 128.05 310.801 127.45 313.434 127.45C316.034 127.45 318.267 128.033 320.134 129.2C322.001 130.333 323.417 131.917 324.384 133.95C325.384 135.95 325.884 138.267 325.884 140.9C325.884 141.533 325.667 142.067 325.234 142.5C324.801 142.9 324.251 143.1 323.584 143.1L303.434 143.1L303.434 139.1L323.434 139.1L321.384 140.5C321.351 138.833 321.017 137.35 320.384 136.05C319.751 134.717 318.851 133.667 317.684 132.9C316.517 132.133 315.101 131.75 313.434 131.75C311.534 131.75 309.901 132.167 308.534 133C307.201 133.833 306.184 134.983 305.484 136.45C304.784 137.883 304.434 139.517 304.434 141.35C304.434 143.183 304.851 144.817 305.684 146.25C306.517 147.683 307.667 148.817 309.134 149.65C310.601 150.483 312.284 150.9 314.184 150.9C315.217 150.9 316.267 150.717 317.334 150.35C318.434 149.95 319.317 149.5 319.984 149C320.484 148.633 321.017 148.45 321.584 148.45C322.184 148.417 322.701 148.583 323.134 148.95C323.701 149.45 324.001 150 324.034 150.6C324.067 151.2 323.801 151.717 323.234 152.15C322.101 153.05 320.684 153.783 318.984 154.35C317.317 154.917 315.717 155.2 314.184 155.2ZM351.405 155C351.072 155 350.755 154.95 350.455 154.85C350.155 154.75 349.872 154.533 349.605 154.2L340.855 143.7L339.055 141.9L330.355 131.6C329.922 131.067 329.688 130.5 329.655 129.9C329.622 129.267 329.788 128.733 330.155 128.3C330.522 127.867 331.072 127.65 331.805 127.65C332.605 127.65 333.238 127.933 333.705 128.5L342.255 138.7L343.555 139.9L352.955 151.15C353.455 151.75 353.688 152.35 353.655 152.95C353.655 153.517 353.438 154 353.005 154.4C352.605 154.8 352.072 155 351.405 155ZM332.305 155C331.638 155 331.105 154.8 330.705 154.4C330.338 153.967 330.155 153.45 330.155 152.85C330.155 152.25 330.388 151.65 330.855 151.05L339.355 140.4L342.055 144.2L334.105 154.2C333.605 154.733 333.005 155 332.305 155ZM344.655 142.15L341.205 139.2L349.255 128.5C349.522 128.167 349.805 127.95 350.105 127.85C350.405 127.717 350.738 127.65 351.105 127.65C351.838 127.65 352.388 127.883 352.755 128.35C353.122 128.783 353.288 129.317 353.255 129.95C353.255 130.583 353.022 131.2 352.555 131.8L344.655 142.15ZM374.267 155.5C372.134 155.5 370.1 155.167 368.167 154.5C366.234 153.833 364.55 152.9 363.117 151.7C361.684 150.5 360.634 149.117 359.967 147.55C359.634 146.85 359.634 146.2 359.967 145.6C360.334 145 360.934 144.617 361.767 144.45C362.367 144.317 362.95 144.417 363.517 144.75C364.117 145.05 364.567 145.517 364.867 146.15C365.267 146.983 365.917 147.75 366.817 148.45C367.75 149.15 368.867 149.717 370.167 150.15C371.467 150.583 372.834 150.8 374.267 150.8C375.867 150.8 377.334 150.55 378.667 150.05C380.034 149.55 381.134 148.833 381.967 147.9C382.8 146.933 383.217 145.75 383.217 144.35C383.217 142.583 382.517 141 381.117 139.6C379.75 138.2 377.484 137.333 374.317 137C370.184 136.6 366.934 135.383 364.567 133.35C362.2 131.317 361.017 128.8 361.017 125.8C361.017 123.6 361.634 121.733 362.867 120.2C364.1 118.667 365.767 117.5 367.867 116.7C370 115.9 372.367 115.5 374.967 115.5C377 115.5 378.767 115.783 380.267 116.35C381.8 116.917 383.134 117.7 384.267 118.7C385.4 119.7 386.384 120.883 387.217 122.25C387.684 122.983 387.867 123.683 387.767 124.35C387.7 124.983 387.384 125.483 386.817 125.85C386.184 126.25 385.5 126.333 384.767 126.1C384.034 125.867 383.484 125.433 383.117 124.8C382.584 123.833 381.934 123.017 381.167 122.35C380.4 121.683 379.5 121.167 378.467 120.8C377.434 120.4 376.217 120.2 374.817 120.2C372.35 120.167 370.284 120.633 368.617 121.6C366.95 122.533 366.117 123.983 366.117 125.95C366.117 126.95 366.367 127.917 366.867 128.85C367.4 129.75 368.35 130.533 369.717 131.2C371.117 131.867 373.117 132.333 375.717 132.6C379.684 133 382.767 134.217 384.967 136.25C387.2 138.25 388.317 140.9 388.317 144.2C388.317 146.1 387.917 147.75 387.117 149.15C386.35 150.55 385.3 151.733 383.967 152.7C382.667 153.633 381.167 154.333 379.467 154.8C377.8 155.267 376.067 155.5 374.267 155.5ZM407.071 155C405.404 155 403.904 154.583 402.571 153.75C401.237 152.883 400.187 151.717 399.421 150.25C398.654 148.783 398.271 147.133 398.271 145.3L398.271 121.45C398.271 120.717 398.504 120.117 398.971 119.65C399.437 119.183 400.037 118.95 400.771 118.95C401.504 118.95 402.104 119.183 402.571 119.65C403.037 120.117 403.271 120.717 403.271 121.45L403.271 145.3C403.271 146.633 403.637 147.75 404.371 148.65C405.104 149.55 406.004 150 407.071 150L408.771 150C409.371 150 409.871 150.233 410.271 150.7C410.704 151.167 410.921 151.767 410.921 152.5C410.921 153.233 410.637 153.833 410.071 154.3C409.537 154.767 408.837 155 407.971 155L407.071 155ZM395.971 132.95C395.271 132.95 394.704 132.75 394.271 132.35C393.837 131.95 393.621 131.45 393.621 130.85C393.621 130.183 393.837 129.65 394.271 129.25C394.704 128.85 395.271 128.65 395.971 128.65L407.521 128.65C408.221 128.65 408.787 128.85 409.221 129.25C409.654 129.65 409.871 130.183 409.871 130.85C409.871 131.45 409.654 131.95 409.221 132.35C408.787 132.75 408.221 132.95 407.521 132.95L395.971 132.95ZM429.919 155.2C427.486 155.2 425.302 154.6 423.369 153.4C421.436 152.167 419.902 150.517 418.769 148.45C417.669 146.35 417.119 143.983 417.119 141.35C417.119 138.717 417.719 136.35 418.919 134.25C420.152 132.15 421.802 130.5 423.869 129.3C425.969 128.067 428.319 127.45 430.919 127.45C433.519 127.45 435.852 128.067 437.919 129.3C439.986 130.5 441.619 132.15 442.819 134.25C444.052 136.35 444.669 138.717 444.669 141.35L442.719 141.35C442.719 143.983 442.152 146.35 441.019 148.45C439.919 150.517 438.402 152.167 436.469 153.4C434.536 154.6 432.352 155.2 429.919 155.2ZM430.919 150.7C432.619 150.7 434.136 150.3 435.469 149.5C436.802 148.667 437.852 147.55 438.619 146.15C439.386 144.717 439.769 143.117 439.769 141.35C439.769 139.55 439.386 137.95 438.619 136.55C437.852 135.117 436.802 134 435.469 133.2C434.136 132.367 432.619 131.95 430.919 131.95C429.252 131.95 427.736 132.367 426.369 133.2C425.036 134 423.969 135.117 423.169 136.55C422.402 137.95 422.019 139.55 422.019 141.35C422.019 143.117 422.402 144.717 423.169 146.15C423.969 147.55 425.036 148.667 426.369 149.5C427.736 150.3 429.252 150.7 430.919 150.7ZM442.119 155.05C441.386 155.05 440.769 154.817 440.269 154.35C439.802 153.85 439.569 153.233 439.569 152.5L439.569 144.85L440.519 139.55L444.669 141.35L444.669 152.5C444.669 153.233 444.419 153.85 443.919 154.35C443.452 154.817 442.852 155.05 442.119 155.05ZM465.989 155.2C463.323 155.2 460.939 154.6 458.839 153.4C456.773 152.167 455.139 150.517 453.939 148.45C452.773 146.35 452.189 143.983 452.189 141.35C452.189 138.65 452.773 136.25 453.939 134.15C455.106 132.05 456.706 130.417 458.739 129.25C460.773 128.05 463.106 127.45 465.739 127.45C467.706 127.45 469.506 127.833 471.139 128.6C472.773 129.333 474.239 130.45 475.539 131.95C476.006 132.483 476.173 133.033 476.039 133.6C475.906 134.167 475.539 134.667 474.939 135.1C474.473 135.433 473.956 135.55 473.389 135.45C472.823 135.317 472.306 135.017 471.839 134.55C470.206 132.817 468.173 131.95 465.739 131.95C464.039 131.95 462.539 132.35 461.239 133.15C459.939 133.917 458.923 135 458.189 136.4C457.456 137.8 457.089 139.45 457.089 141.35C457.089 143.15 457.456 144.75 458.189 146.15C458.956 147.55 460.006 148.667 461.339 149.5C462.673 150.3 464.223 150.7 465.989 150.7C467.156 150.7 468.173 150.567 469.039 150.3C469.939 150 470.756 149.55 471.489 148.95C472.023 148.517 472.573 148.283 473.139 148.25C473.706 148.183 474.206 148.333 474.639 148.7C475.206 149.167 475.523 149.7 475.589 150.3C475.656 150.867 475.456 151.383 474.989 151.85C472.589 154.083 469.589 155.2 465.989 155.2ZM489.749 145L486.649 141.6L501.999 127.9C502.499 127.433 503.049 127.217 503.649 127.25C504.282 127.283 504.815 127.55 505.249 128.05C505.715 128.55 505.932 129.1 505.899 129.7C505.865 130.3 505.599 130.833 505.099 131.3L489.749 145ZM487.399 155C486.665 155 486.065 154.783 485.599 154.35C485.165 153.883 484.949 153.283 484.949 152.55L484.949 118.4C484.949 117.667 485.165 117.083 485.599 116.65C486.065 116.183 486.665 115.95 487.399 115.95C488.132 115.95 488.715 116.183 489.149 116.65C489.615 117.083 489.849 117.667 489.849 118.4L489.849 152.55C489.849 153.283 489.615 153.883 489.149 154.35C488.715 154.783 488.132 155 487.399 155ZM505.249 154.75C504.715 155.183 504.115 155.367 503.449 155.3C502.815 155.267 502.282 154.983 501.849 154.45L491.699 141.9L495.199 138.6L505.599 151.4C506.032 151.933 506.215 152.517 506.149 153.15C506.115 153.75 505.815 154.283 505.249 154.75Z" fill="white"/>
<g filter="url(#filter0_d_1744_4593)">
<path fill-rule="evenodd" clip-rule="evenodd" d="M108.411 135.744C132.088 135.744 151.283 116.549 151.283 92.8718C151.283 69.1944 132.088 50 108.411 50C84.7334 50 65.5391 69.1944 65.5391 92.8718C65.5391 116.549 84.7334 135.744 108.411 135.744Z" fill="url(#paint0_linear_1744_4593)"/>
<path d="M148.283 92.8718C148.283 114.892 130.431 132.744 108.411 132.744C86.3903 132.744 68.5391 114.892 68.5391 92.8718C68.5391 70.8512 86.3903 53 108.411 53C130.431 53 148.283 70.8512 148.283 92.8718Z" stroke="url(#paint1_linear_1744_4593)" stroke-opacity="0.5" stroke-width="6"/>
</g>
<g filter="url(#filter1_d_1744_4593)">
<path fill-rule="evenodd" clip-rule="evenodd" d="M108.462 242C135.226 242 156.923 220.303 156.923 193.539C156.923 166.774 135.226 145.077 108.462 145.077C81.697 145.077 60 166.774 60 193.539C60 220.303 81.697 242 108.462 242Z" fill="url(#paint2_linear_1744_4593)"/>
<path d="M153.923 193.539C153.923 218.646 133.569 239 108.462 239C83.3538 239 63 218.646 63 193.539C63 168.431 83.3538 148.077 108.462 148.077C133.569 148.077 153.923 168.431 153.923 193.539Z" stroke="url(#paint3_linear_1744_4593)" stroke-opacity="0.5" stroke-width="6"/>
</g>
<g filter="url(#filter2_d_1744_4593)">
<path fill-rule="evenodd" clip-rule="evenodd" d="M190.616 170.923C209.224 170.923 224.308 155.632 224.308 136.769C224.308 117.906 209.224 102.615 190.616 102.615C172.008 102.615 156.924 117.906 156.924 136.769C156.924 155.632 172.008 170.923 190.616 170.923Z" fill="url(#paint4_linear_1744_4593)"/>
<path d="M221.308 136.769C221.308 154.013 207.529 167.923 190.616 167.923C173.704 167.923 159.924 154.013 159.924 136.769C159.924 119.525 173.704 105.615 190.616 105.615C207.529 105.615 221.308 119.525 221.308 136.769Z" stroke="url(#paint5_linear_1744_4593)" stroke-opacity="0.5" stroke-width="6"/>
</g>
<defs>
<filter id="filter0_d_1744_4593" x="5.53906" y="0" width="205.744" height="205.744" filterUnits="userSpaceOnUse" color-interpolation-filters="sRGB">
<feFlood flood-opacity="0" result="BackgroundImageFix"/>
<feColorMatrix in="SourceAlpha" type="matrix" values="0 0 0 0 0 0 0 0 0 0 0 0 0 0 0 0 0 0 127 0" result="hardAlpha"/>
<feOffset dy="10"/>
<feGaussianBlur stdDeviation="30"/>
<feColorMatrix type="matrix" values="0 0 0 0 0 0 0 0 0 0 0 0 0 0 0 0 0 0 0.08 0"/>
<feBlend mode="normal" in2="BackgroundImageFix" result="effect1_dropShadow_1744_4593"/>
<feBlend mode="normal" in="SourceGraphic" in2="effect1_dropShadow_1744_4593" result="shape"/>
</filter>
<filter id="filter1_d_1744_4593" x="0" y="95.0771" width="216.924" height="216.923" filterUnits="userSpaceOnUse" color-interpolation-filters="sRGB">
<feFlood flood-opacity="0" result="BackgroundImageFix"/>
<feColorMatrix in="SourceAlpha" type="matrix" values="0 0 0 0 0 0 0 0 0 0 0 0 0 0 0 0 0 0 127 0" result="hardAlpha"/>
<feOffset dy="10"/>
<feGaussianBlur stdDeviation="30"/>
<feColorMatrix type="matrix" values="0 0 0 0 0 0 0 0 0 0 0 0 0 0 0 0 0 0 0.08 0"/>
<feBlend mode="normal" in2="BackgroundImageFix" result="effect1_dropShadow_1744_4593"/>
<feBlend mode="normal" in="SourceGraphic" in2="effect1_dropShadow_1744_4593" result="shape"/>
</filter>
<filter id="filter2_d_1744_4593" x="96.9238" y="52.6152" width="187.385" height="188.308" filterUnits="userSpaceOnUse" color-interpolation-filters="sRGB">
<feFlood flood-opacity="0" result="BackgroundImageFix"/>
<feColorMatrix in="SourceAlpha" type="matrix" values="0 0 0 0 0 0 0 0 0 0 0 0 0 0 0 0 0 0 127 0" result="hardAlpha"/>
<feOffset dy="10"/>
<feGaussianBlur stdDeviation="30"/>
<feColorMatrix type="matrix" values="0 0 0 0 0 0 0 0 0 0 0 0 0 0 0 0 0 0 0.08 0"/>
<feBlend mode="normal" in2="BackgroundImageFix" result="effect1_dropShadow_1744_4593"/>
<feBlend mode="normal" in="SourceGraphic" in2="effect1_dropShadow_1744_4593" result="shape"/>
</filter>
<linearGradient id="paint0_linear_1744_4593" x1="131.902" y1="44.2065" x2="100.419" y2="171.286" gradientUnits="userSpaceOnUse">
<stop stop-color="#5AA2F8"/>
<stop offset="1" stop-color="#2652C2" stop-opacity="0"/>
</linearGradient>
<linearGradient id="paint1_linear_1744_4593" x1="108.411" y1="50" x2="108.411" y2="135.744" gradientUnits="userSpaceOnUse">
<stop stop-color="#ACD6F4"/>
<stop offset="1" stop-color="#3E6991" stop-opacity="0.46"/>
</linearGradient>
<linearGradient id="paint2_linear_1744_4593" x1="135.016" y1="138.528" x2="99.4271" y2="282.177" gradientUnits="userSpaceOnUse">
<stop stop-color="#0EE4F1"/>
<stop offset="1" stop-color="#1AA6E2" stop-opacity="0"/>
</linearGradient>
<linearGradient id="paint3_linear_1744_4593" x1="108.462" y1="145.077" x2="108.462" y2="242" gradientUnits="userSpaceOnUse">
<stop stop-color="#ACD6F4"/>
<stop offset="1" stop-color="#3E6991" stop-opacity="0.46"/>
</linearGradient>
<linearGradient id="paint4_linear_1744_4593" x1="209.078" y1="97.9999" x2="183.693" y2="199.077" gradientUnits="userSpaceOnUse">
<stop stop-color="#1DE9B8"/>
<stop offset="1" stop-color="#2A8670" stop-opacity="0"/>
</linearGradient>
<linearGradient id="paint5_linear_1744_4593" x1="190.616" y1="102.615" x2="190.616" y2="170.923" gradientUnits="userSpaceOnUse">
<stop stop-color="#ACD6F4"/>
<stop offset="1" stop-color="#3E6991" stop-opacity="0.46"/>
</linearGradient>
</defs>
</svg>
