<svg width="20" height="25" viewBox="0 0 20 25" fill="none" xmlns="http://www.w3.org/2000/svg">
<path d="M10 24.5C11.375 24.5 12.5 23.3923 12.5 22.0385H7.5C7.5 23.3923 8.625 24.5 10 24.5ZM17.5 17.1154V10.9615C17.5 7.18308 15.4625 4.02 11.875 3.18308V2.34615C11.875 1.32462 11.0375 0.5 10 0.5C8.9625 0.5 8.125 1.32462 8.125 2.34615V3.18308C4.55 4.02 2.5 7.17077 2.5 10.9615V17.1154L0 19.5769V20.8077H20V19.5769L17.5 17.1154ZM15 18.3462H5V10.9615C5 7.90923 6.8875 5.42308 10 5.42308C13.1125 5.42308 15 7.90923 15 10.9615V18.3462Z" fill="white"/>
</svg>
