<svg width="20" height="513" viewBox="0 0 20 513" fill="none" xmlns="http://www.w3.org/2000/svg">
<line x1="10" y1="334" x2="10" y2="494" stroke="#A0AEC0" strokeWidth="4"/>
<line x1="10" y1="176" x2="10" y2="316" stroke="#A0AEC0" strokeWidth="4"/>
<line x1="10" y1="19" x2="9.99999" y2="159" stroke="#A0AEC0" strokeWidth="4"/>
<path d="M10 20C7.34783 20 4.8043 18.9464 2.92893 17.0711C1.05357 15.1957 0 12.6522 0 10C0 7.34783 1.05357 4.8043 2.92893 2.92893C4.8043 1.05357 7.34783 0 10 0C12.6522 0 15.1957 1.05357 17.0711 2.92893C18.9464 4.8043 20 7.34783 20 10C20 12.6522 18.9464 15.1957 17.0711 17.0711C15.1957 18.9464 12.6522 20 10 20ZM6.25 10C6.25 10.9946 6.64509 11.9484 7.34835 12.6516C8.05161 13.3549 9.00544 13.75 10 13.75C10.9946 13.75 11.9484 13.3549 12.6517 12.6516C13.3549 11.9484 13.75 10.9946 13.75 10C13.75 9.00544 13.3549 8.05161 12.6517 7.34835C11.9484 6.64509 10.9946 6.25 10 6.25C9.00544 6.25 8.05161 6.64509 7.34835 7.34835C6.64509 8.05161 6.25 9.00544 6.25 10Z" fill="url(#paint0_linear_3794_5934)"/>
<path d="M10 316.5C14.6856 316.5 18.5 320.314 18.5 325C18.5 329.686 14.6856 333.5 10 333.5C5.31443 333.5 1.5 329.686 1.5 325C1.5 320.314 5.31443 316.5 10 316.5Z" stroke="#A0AEC0" strokeWidth="3"/>
<path d="M10 159.5C14.6856 159.5 18.5 163.314 18.5 168C18.5 172.686 14.6856 176.5 10 176.5C5.31443 176.5 1.5 172.686 1.5 168C1.5 163.314 5.31443 159.5 10 159.5Z" stroke="#A0AEC0" strokeWidth="3"/>
<path d="M10 494.5C14.6856 494.5 18.5 498.314 18.5 503C18.5 507.686 14.6856 511.5 10 511.5C5.31443 511.5 1.5 507.686 1.5 503C1.5 498.314 5.31443 494.5 10 494.5Z" stroke="#A0AEC0" strokeWidth="3"/>
<defs>
<linearGradient id="paint0_linear_3794_5934" x1="-13.7379" y1="9.98668" x2="7.21639" y2="38.3698" gradientUnits="userSpaceOnUse">
<stop stop-color="#13547A"/>
<stop offset="1" stop-color="#00ABD1"/>
</linearGradient>
</defs>
</svg>
