<svg width="512" height="512" xmlns="http://www.w3.org/2000/svg"><path fill="#fafafa" d="M0 0h512v512H0z"/><path d="M501.625 444.02c-6.732-20.202-18.936-40.58-36.936-52.438-34.634-22.99-74.988-35.253-114.006-48.382-9.413-3.298-18.977-6.893-27.579-12.007-7.68-4.563-10.562-13.921-12.346-22.14-.787-4.348-1.27-8.81-1.52-13.198 28.294-38.704 47.062-101.87 47.062-153.663 0-80.83-45.672-103.356-102.002-103.356-56.342 0-102.004 22.492-102.004 103.322 0 53.647 20.121 119.454 50.12 157.683-.274 3.018-.633 6.036-1.176 9.04-1.788 8.219-4.667 17.402-12.342 21.964-8.611 5.116-18.174 8.363-27.588 11.66-39.019 13.128-79.37 24.705-113.996 47.694-18.01 11.859-30.208 33.62-36.935 53.821C3.448 464.987.615 490.956 1.042 512h509.916c.43-21.042-2.41-47.012-9.333-67.98z" fill="#e6e9ed"/></svg>