<svg width="124" height="120" viewBox="0 0 124 120" fill="none" xmlns="http://www.w3.org/2000/svg">
<ellipse cx="62" cy="60" rx="62" ry="60" fill="#E2E8F0"/>
<path d="M62 57.0414C52.5939 57.0414 50.6878 42.7873 50.6878 42.7873C49.5691 35.3702 52.9668 27 61.8757 27C70.826 27 74.2238 35.3702 73.105 42.7873C73.105 42.7873 71.4061 57.0414 62 57.0414ZM62 67.6906L73.2707 60.1492C83.174 60.1492 92 69.8039 92 78.9199V89.2376C92 89.2376 76.8757 93.9199 62 93.9199C46.8757 93.9199 32 89.2376 32 89.2376V78.9199C32 69.5967 40.0387 60.3564 50.5221 60.3564L62 67.6906Z" fill="white"/>
<path d="M55.4707 84H49.4062V73.292H55.4707V74.7715H51.1641V77.6792H55.1997V79.1514H51.1641V82.5132H55.4707V84ZM60.334 84.1465C59.3672 84.1465 58.5908 83.7949 58.0049 83.0918C57.4238 82.3838 57.1333 81.3413 57.1333 79.9644C57.1333 78.5728 57.4287 77.5205 58.0195 76.8076C58.6152 76.0947 59.3989 75.7383 60.3706 75.7383C60.7808 75.7383 61.1396 75.7944 61.4473 75.9067C61.7549 76.0142 62.0186 76.1606 62.2383 76.3462C62.4629 76.5317 62.6533 76.7393 62.8096 76.9688H62.8901C62.8657 76.8174 62.8364 76.6001 62.8022 76.3169C62.7729 76.0288 62.7583 75.7627 62.7583 75.5186V72.6035H64.4868V84H63.1392L62.8315 82.894H62.7583C62.6118 83.1284 62.4263 83.3408 62.2017 83.5312C61.9819 83.7168 61.7183 83.8657 61.4106 83.978C61.1079 84.0903 60.749 84.1465 60.334 84.1465ZM60.8174 82.7476C61.5547 82.7476 62.0747 82.5352 62.3774 82.1104C62.6802 81.6855 62.8364 81.0483 62.8462 80.1987V79.9717C62.8462 79.0635 62.6997 78.3677 62.4067 77.8843C62.1138 77.396 61.5791 77.1519 60.8027 77.1519C60.1826 77.1519 59.709 77.4033 59.3818 77.9062C59.0596 78.4043 58.8984 79.1001 58.8984 79.9937C58.8984 80.8872 59.0596 81.5708 59.3818 82.0444C59.709 82.5132 60.1875 82.7476 60.8174 82.7476ZM68.6763 75.8921V84H66.9551V75.8921H68.6763ZM67.8267 72.7866C68.0903 72.7866 68.3174 72.8574 68.5078 72.999C68.7031 73.1406 68.8008 73.3848 68.8008 73.7314C68.8008 74.0732 68.7031 74.3174 68.5078 74.4639C68.3174 74.6055 68.0903 74.6763 67.8267 74.6763C67.5532 74.6763 67.3213 74.6055 67.1309 74.4639C66.9453 74.3174 66.8525 74.0732 66.8525 73.7314C66.8525 73.3848 66.9453 73.1406 67.1309 72.999C67.3213 72.8574 67.5532 72.7866 67.8267 72.7866ZM74.1621 82.7549C74.3867 82.7549 74.6089 82.7354 74.8286 82.6963C75.0483 82.6523 75.2485 82.6011 75.4292 82.5425V83.8462C75.2388 83.9292 74.9922 84 74.6895 84.0586C74.3867 84.1172 74.0718 84.1465 73.7446 84.1465C73.2856 84.1465 72.873 84.0708 72.5068 83.9194C72.1406 83.7632 71.8501 83.4971 71.6353 83.1211C71.4204 82.7451 71.313 82.2251 71.313 81.561V77.2031H70.207V76.4341L71.3936 75.8262L71.9575 74.0903H73.0415V75.8921H75.3633V77.2031H73.0415V81.5391C73.0415 81.9492 73.144 82.2544 73.3491 82.4546C73.5542 82.6548 73.8252 82.7549 74.1621 82.7549Z" fill="#718096"/>
</svg>
