<svg width="15" height="14" viewBox="0 0 15 14" fill="none" xmlns="http://www.w3.org/2000/svg">
<path d="M15 6.58301C15 5.96764 14.6628 5.43613 14.1667 5.14759V1.1666C14.1667 0.938737 13.9849 0.333008 13.3333 0.333008C13.1479 0.333008 12.9638 0.394987 12.813 0.51582L10.5987 2.28743C9.48646 3.1765 8.0901 3.66634 6.66667 3.66634H1.66667C0.746094 3.66634 0 4.41244 0 5.33301V7.83301C0 8.75358 0.746094 9.49967 1.66667 9.49967H2.54427C2.50807 9.77259 2.4875 10.0502 2.4875 10.333C2.4875 11.3687 2.72865 12.3473 3.15313 13.2221C3.28828 13.5005 3.58333 13.6663 3.89271 13.6663H5.82708C6.50547 13.6663 6.91276 12.8893 6.50156 12.3497C6.07448 11.7893 5.82057 11.0903 5.82057 10.333C5.82057 10.0437 5.86276 9.76556 5.93542 9.49967H6.66667C8.0901 9.49967 9.48646 9.98952 10.5984 10.8786L12.8128 12.6502C12.9604 12.7684 13.1439 12.8328 13.3331 12.833C13.982 12.833 14.1664 12.2398 14.1664 11.9997V8.01868C14.6628 7.72988 15 7.19837 15 6.58301ZM12.5 10.2658L11.6393 9.57728C10.2331 8.45228 8.46667 7.83301 6.66667 7.83301V5.33301C8.46667 5.33301 10.2331 4.71374 11.6393 3.58874L12.5 2.9002V10.2658Z" fill="#00ABD1"/>
</svg>
