<svg width="60" height="53" viewBox="0 0 60 53" fill="none" xmlns="http://www.w3.org/2000/svg">
<path d="M34.1508 0.0107606C30.5928 -0.090034 27.0506 0.518131 23.7338 1.79927C20.4169 3.08041 17.3928 5.0085 14.8403 7.46946C12.2878 9.93042 10.2589 12.8742 8.87346 16.1268C7.48808 19.3793 6.7744 22.8744 6.77467 26.4054H1.48273C0.152356 26.4054 -0.49805 27.989 0.447995 28.8982L8.69632 37.0805C9.2876 37.6671 10.2041 37.6671 10.7954 37.0805L19.0732 28.8982C19.9602 27.989 19.3098 26.4054 17.9794 26.4054H12.6874C12.6874 14.997 22.1479 5.70027 33.6778 5.87623C44.646 6.02287 53.8995 15.2023 54.0769 26.1121C54.2543 37.5791 44.9121 46.9345 33.3822 46.9345C28.6815 46.9345 24.3652 45.3802 20.8766 42.7407C19.6941 41.8609 18.0385 41.9489 17.0038 43.0046C15.7325 44.2657 15.8508 46.348 17.2698 47.4038C21.8979 50.9081 27.5599 52.8044 33.3822 52.8C48.3415 52.8 60.4035 40.5705 59.9897 25.6722C59.6053 11.8883 48.0163 0.392016 34.1508 0.0107606ZM39.2949 23.4726V20.5399C39.2949 17.3139 36.6342 14.6744 33.3822 14.6744C30.1301 14.6744 27.4694 17.3139 27.4694 20.5399V23.4726C25.8434 23.4726 24.513 24.7924 24.513 26.4054V35.2036C24.513 36.8166 25.8434 38.1363 27.4694 38.1363H39.2949C40.921 38.1363 42.2513 36.8166 42.2513 35.2036V26.4054C42.2513 24.7924 40.921 23.4726 39.2949 23.4726ZM36.3386 23.4726H30.4258V20.5399C30.4258 18.9269 31.7561 17.6072 33.3822 17.6072C35.0082 17.6072 36.3386 18.9269 36.3386 20.5399V23.4726Z" fill="url(#paint0_linear_1726_4627)"/>
<defs>
<linearGradient id="paint0_linear_1726_4627" x1="29.9601" y1="89.0679" x2="107.174" y2="24.2901" gradientUnits="userSpaceOnUse">
<stop stop-color="#13547A"/>
<stop offset="1" stop-color="#00ABD1"/>
</linearGradient>
</defs>
</svg>
