<svg width="15" height="16" viewBox="0 0 15 16" fill="none" xmlns="http://www.w3.org/2000/svg">
<path d="M15 8L12 5V7.25H6V8.75H12V11L15 8ZM13.5 12.5C12.5555 13.7593 11.2388 14.6895 9.73626 15.1588C8.23374 15.6282 6.62163 15.6129 5.12829 15.1151C3.63495 14.6173 2.33609 13.6623 1.41568 12.3853C0.49528 11.1083 0 9.57412 0 8C0 6.42588 0.49528 4.89166 1.41568 3.61467C2.33609 2.33768 3.63495 1.38266 5.12829 0.884875C6.62163 0.387095 8.23374 0.371797 9.73626 0.841148C11.2388 1.3105 12.5555 2.2407 13.5 3.5H11.4525C10.5865 2.73625 9.51849 2.23861 8.37665 2.06679C7.23482 1.89498 6.06767 2.05629 5.01525 2.53137C3.96282 3.00645 3.06984 3.77512 2.44345 4.74514C1.81706 5.71516 1.48387 6.84531 1.48387 8C1.48387 9.15468 1.81706 10.2848 2.44345 11.2549C3.06984 12.2249 3.96282 12.9935 5.01525 13.4686C6.06767 13.9437 7.23482 14.105 8.37665 13.9332C9.51849 13.7614 10.5865 13.2638 11.4525 12.5H13.5Z" fill="#00ABD1"/>
</svg>
