<svg width="14" height="14" viewBox="0 0 14 14" fill="none" xmlns="http://www.w3.org/2000/svg">
<path d="M9.49902 6C9.49902 7.92969 7.92871 9.5 5.99902 9.5C4.06934 9.5 2.49902 7.92969 2.49902 6C2.49902 4.07031 4.06934 2.5 5.99902 2.5C7.92871 2.5 9.49902 4.07031 9.49902 6ZM13.499 12.5C13.499 12.2344 13.3896 11.9766 13.21 11.7969L10.5303 9.11719C11.1631 8.20312 11.499 7.10937 11.499 6C11.499 2.96094 9.03809 0.499999 5.99902 0.499999C2.95996 0.499999 0.499023 2.96094 0.499023 6C0.499023 9.03906 2.95996 11.5 5.99902 11.5C7.1084 11.5 8.20215 11.1641 9.11621 10.5312L11.7959 13.2031C11.9756 13.3906 12.2334 13.5 12.499 13.5C13.0459 13.5 13.499 13.0469 13.499 12.5Z" fill="#082932"/>
</svg>
