<svg width="15" height="16" viewBox="0 0 15 16" fill="none" xmlns="http://www.w3.org/2000/svg">
<path d="M13.7744 8.50415C13.652 8.36484 13.5845 8.18574 13.5845 8.0003C13.5845 7.81487 13.652 7.63577 13.7744 7.49646L14.7516 6.39716C14.8593 6.27705 14.9261 6.12592 14.9426 5.96546C14.959 5.80499 14.9242 5.64344 14.8432 5.50397L13.3164 2.8626C13.2362 2.7233 13.114 2.61287 12.9673 2.54708C12.8206 2.48128 12.6569 2.46346 12.4995 2.49617L11.0643 2.78626C10.8817 2.82399 10.6916 2.79358 10.5299 2.70076C10.3681 2.60794 10.246 2.45913 10.1864 2.28241L9.72076 0.885387C9.66954 0.733759 9.57197 0.602061 9.44183 0.508908C9.31169 0.415756 9.15557 0.365859 8.99552 0.366273H5.94191C5.77544 0.357583 5.6107 0.403623 5.47285 0.49736C5.335 0.591096 5.23162 0.727377 5.17851 0.885387L4.751 2.28241C4.69146 2.45913 4.56929 2.60794 4.40756 2.70076C4.24582 2.79358 4.05571 2.82399 3.87309 2.78626L2.39972 2.49617C2.25051 2.47508 2.0984 2.49863 1.96256 2.56383C1.82671 2.62904 1.71319 2.733 1.63632 2.8626L0.109511 5.50397C0.0264222 5.64188 -0.0109372 5.80253 0.00277386 5.96295C0.0164849 6.12337 0.0805644 6.27535 0.185851 6.39716L1.15537 7.49646C1.27776 7.63577 1.34526 7.81487 1.34526 8.0003C1.34526 8.18574 1.27776 8.36484 1.15537 8.50415L0.185851 9.60345C0.0805644 9.72526 0.0164849 9.87723 0.00277386 10.0377C-0.0109372 10.1981 0.0264222 10.3587 0.109511 10.4966L1.63632 13.138C1.71655 13.2773 1.83871 13.3877 1.98538 13.4535C2.13206 13.5193 2.29576 13.5371 2.45316 13.5044L3.88836 13.2143C4.07098 13.1766 4.26109 13.207 4.42282 13.2998C4.58456 13.3927 4.70673 13.5415 4.76627 13.7182L5.23195 15.1152C5.28506 15.2732 5.38844 15.4095 5.52629 15.5032C5.66413 15.597 5.82888 15.643 5.99535 15.6343H9.04896C9.209 15.6347 9.36513 15.5848 9.49527 15.4917C9.62541 15.3985 9.72298 15.2668 9.77419 15.1152L10.2399 13.7182C10.2994 13.5415 10.4216 13.3927 10.5833 13.2998C10.745 13.207 10.9352 13.1766 11.1178 13.2143L12.553 13.5044C12.7104 13.5371 12.8741 13.5193 13.0208 13.4535C13.1674 13.3877 13.2896 13.2773 13.3698 13.138L14.8966 10.4966C14.9777 10.3572 15.0125 10.1956 14.996 10.0351C14.9796 9.87468 14.9127 9.72356 14.805 9.60345L13.7744 8.50415ZM12.637 9.52711L13.2477 10.2142L12.2705 11.9089L11.3697 11.7257C10.8199 11.6133 10.2479 11.7067 9.76243 11.9882C9.27693 12.2696 8.91166 12.7195 8.73597 13.2525L8.44587 14.1075H6.49156L6.21674 13.2372C6.04104 12.7043 5.67577 12.2544 5.19027 11.9729C4.70476 11.6914 4.13281 11.5981 3.58299 11.7104L2.68218 11.8937L1.68976 10.2065L2.30048 9.51947C2.67604 9.09959 2.88367 8.55601 2.88367 7.99267C2.88367 7.42933 2.67604 6.88575 2.30048 6.46586L1.68976 5.7788L2.66691 4.09931L3.56773 4.28253C4.11755 4.39492 4.68949 4.30152 5.175 4.02007C5.66051 3.73862 6.02577 3.2887 6.20147 2.75572L6.49156 1.89308H8.44587L8.73597 2.76336C8.91166 3.29633 9.27693 3.74625 9.76243 4.0277C10.2479 4.30916 10.8199 4.40255 11.3697 4.29016L12.2705 4.10695L13.2477 5.8017L12.637 6.48876C12.2656 6.90769 12.0606 7.44812 12.0606 8.00794C12.0606 8.56775 12.2656 9.10818 12.637 9.52711ZM7.46872 4.94669C6.86477 4.94669 6.27438 5.12578 5.77222 5.46132C5.27006 5.79685 4.87867 6.27376 4.64755 6.83174C4.41643 7.38971 4.35595 8.00369 4.47378 8.59603C4.5916 9.18838 4.88243 9.73248 5.30949 10.1595C5.73654 10.5866 6.28064 10.8774 6.87299 10.9952C7.46533 11.1131 8.07931 11.0526 8.63728 10.8215C9.19526 10.5904 9.67217 10.199 10.0077 9.6968C10.3432 9.19463 10.5223 8.60425 10.5223 8.0003C10.5223 7.19043 10.2006 6.41374 9.62795 5.84107C9.05528 5.26841 8.27858 4.94669 7.46872 4.94669ZM7.46872 9.52711C7.16674 9.52711 6.87155 9.43756 6.62047 9.2698C6.36939 9.10203 6.17369 8.86357 6.05813 8.58459C5.94257 8.3056 5.91234 7.99861 5.97125 7.70244C6.03016 7.40627 6.17557 7.13422 6.3891 6.92069C6.60263 6.70716 6.87468 6.56175 7.17085 6.50283C7.46702 6.44392 7.77401 6.47416 8.053 6.58972C8.33199 6.70528 8.57044 6.90097 8.73821 7.15205C8.90598 7.40314 8.99552 7.69833 8.99552 8.0003C8.99552 8.40524 8.83466 8.79359 8.54833 9.07992C8.262 9.36625 7.87365 9.52711 7.46872 9.52711Z" fill="#00ABD1"/>
</svg>
