<svg width="15" height="16" viewBox="0 0 15 16" fill="none" xmlns="http://www.w3.org/2000/svg">
<path d="M10.4591 6.17409C10.5246 6.11303 10.5774 6.03966 10.6146 5.95818C10.6517 5.8767 10.6724 5.7887 10.6756 5.69921C10.6787 5.60971 10.6642 5.52048 10.6328 5.4366C10.6015 5.35272 10.5539 5.27584 10.4928 5.21034C10.4318 5.14484 10.3584 5.09202 10.2769 5.05487C10.1954 5.01773 10.1074 4.997 10.018 4.99387C9.92846 4.99073 9.83923 5.00526 9.75535 5.03661C9.67147 5.06796 9.59459 5.11553 9.52909 5.17659L7.53409 7.03659L5.67409 5.04091C5.54964 4.91344 5.38023 4.83974 5.20213 4.83559C5.02403 4.83144 4.85138 4.89716 4.72112 5.01869C4.59086 5.14021 4.51333 5.3079 4.50514 5.48586C4.49695 5.66382 4.55873 5.83792 4.67727 5.97091L6.53727 7.96591L4.54159 9.82591C4.47378 9.88635 4.41873 9.95974 4.37968 10.0418C4.34063 10.1238 4.31836 10.2128 4.31418 10.3035C4.31 10.3943 4.324 10.4849 4.35535 10.5702C4.3867 10.6554 4.43477 10.7336 4.49674 10.8C4.55871 10.8664 4.63333 10.9198 4.71621 10.957C4.79909 10.9941 4.88857 11.0144 4.97938 11.0165C5.0702 11.0186 5.16052 11.0026 5.24504 10.9693C5.32957 10.936 5.40659 10.8862 5.47159 10.8227L7.46659 8.96341L9.32659 10.9584C9.38665 11.0275 9.46 11.0837 9.54226 11.1238C9.62452 11.164 9.71402 11.1871 9.80542 11.1919C9.89682 11.1967 9.98825 11.183 10.0743 11.1517C10.1603 11.1204 10.2391 11.0721 10.306 11.0097C10.373 10.9473 10.4267 10.8721 10.4639 10.7884C10.5011 10.7048 10.5212 10.6146 10.5228 10.5231C10.5244 10.4316 10.5076 10.3407 10.4733 10.2558C10.4391 10.1709 10.3881 10.0938 10.3234 10.0291L8.46409 8.03409L10.4591 6.17409Z" fill="#00ABD1"/>
<path fill-rule="evenodd" clip-rule="evenodd" d="M0 8C0 3.85795 3.35795 0.5 7.5 0.5C11.642 0.5 15 3.85795 15 8C15 12.142 11.642 15.5 7.5 15.5C3.35795 15.5 0 12.142 0 8ZM7.5 14.1364C6.69416 14.1364 5.89621 13.9776 5.15172 13.6693C4.40722 13.3609 3.73075 12.9089 3.16094 12.3391C2.59112 11.7692 2.13912 11.0928 1.83074 10.3483C1.52236 9.60379 1.36364 8.80584 1.36364 8C1.36364 7.19416 1.52236 6.39621 1.83074 5.65172C2.13912 4.90722 2.59112 4.23075 3.16094 3.66094C3.73075 3.09112 4.40722 2.63912 5.15172 2.33074C5.89621 2.02236 6.69416 1.86364 7.5 1.86364C9.12747 1.86364 10.6883 2.51014 11.8391 3.66094C12.9899 4.81173 13.6364 6.37254 13.6364 8C13.6364 9.62747 12.9899 11.1883 11.8391 12.3391C10.6883 13.4899 9.12747 14.1364 7.5 14.1364Z" fill="#00ABD1"/>
</svg>
