<svg width="15" height="10" viewBox="0 0 15 10" fill="none" xmlns="http://www.w3.org/2000/svg">
<path d="M7.52586 6.80383C8.12979 6.29578 8.56289 5.6143 8.76644 4.85178C8.96998 4.08927 8.93413 3.28261 8.66373 2.54116C8.39334 1.79971 7.90149 1.15935 7.25486 0.706876C6.60823 0.254405 5.83811 0.0117188 5.0489 0.0117188C4.25969 0.0117188 3.48956 0.254405 2.84293 0.706876C2.19631 1.15935 1.70446 1.79971 1.43406 2.54116C1.16367 3.28261 1.12782 4.08927 1.33136 4.85178C1.53491 5.6143 1.968 6.29578 2.57194 6.80383C1.59248 7.24707 0.749638 7.94459 0.131046 8.82388C0.0212572 8.98022 -0.0220439 9.17371 0.0106407 9.36193C0.0433254 9.55015 0.149327 9.71772 0.305396 9.82789C0.42639 9.91437 0.571504 9.96064 0.720227 9.96016C0.835905 9.96049 0.949939 9.93277 1.05255 9.87936C1.15517 9.82596 1.24331 9.74847 1.30941 9.65354C1.73092 9.05318 2.29079 8.56314 2.94168 8.22483C3.59257 7.88653 4.31534 7.70991 5.0489 7.70991C5.78246 7.70991 6.50523 7.88653 7.15612 8.22483C7.80701 8.56314 8.36687 9.05318 8.78839 9.65354C8.84065 9.73613 8.90914 9.80725 8.98972 9.86256C9.0703 9.91788 9.16127 9.95625 9.25712 9.97534C9.35298 9.99443 9.45171 9.99385 9.54733 9.97362C9.64295 9.9534 9.73347 9.91396 9.81338 9.85769C9.8933 9.80142 9.96095 9.72951 10.0122 9.6463C10.0635 9.5631 10.0973 9.47034 10.1117 9.37366C10.126 9.27698 10.1206 9.1784 10.0957 9.08389C10.0707 8.98938 10.0269 8.90092 9.96675 8.82388C9.34816 7.94459 8.50532 7.24707 7.52586 6.80383ZM2.64408 3.86394C2.64408 3.38831 2.78512 2.92337 3.04937 2.5279C3.31361 2.13243 3.68919 1.82419 4.12861 1.64218C4.56804 1.46016 5.05157 1.41254 5.51805 1.50533C5.98454 1.59812 6.41304 1.82716 6.74936 2.16348C7.08568 2.4998 7.31472 2.9283 7.40751 3.39479C7.5003 3.86127 7.45268 4.3448 7.27066 4.78423C7.08865 5.22365 6.78041 5.59923 6.38494 5.86348C5.98947 6.12772 5.52453 6.26876 5.0489 6.26876C4.4111 6.26876 3.79943 6.0154 3.34844 5.5644C2.89744 5.11341 2.64408 4.50174 2.64408 3.86394ZM14.6922 9.82789C14.5712 9.91437 14.4261 9.96064 14.2774 9.96016C14.1619 9.95949 14.0482 9.93133 13.9458 9.87801C13.8433 9.8247 13.755 9.74775 13.6882 9.65354C13.2658 9.05423 12.7057 8.56506 12.055 8.22715C11.4043 7.88924 10.6819 7.71245 9.94871 7.71165C9.75738 7.71165 9.57387 7.63564 9.43858 7.50034C9.30328 7.36505 9.22727 7.18154 9.22727 6.99021C9.22727 6.79887 9.30328 6.61536 9.43858 6.48007C9.57387 6.34477 9.75738 6.26876 9.94871 6.26876C10.5865 6.26876 11.1982 6.0154 11.6492 5.5644C12.1002 5.11341 12.3535 4.50174 12.3535 3.86394C12.3535 3.22614 12.1002 2.61447 11.6492 2.16348C11.1982 1.71249 10.5865 1.45912 9.94871 1.45912C9.72913 1.45871 9.51057 1.48907 9.29941 1.5493C9.20772 1.57666 9.1115 1.58549 9.01635 1.5753C8.92121 1.56511 8.82904 1.53609 8.74522 1.48994C8.6614 1.44379 8.5876 1.38142 8.52811 1.30647C8.46862 1.23152 8.42464 1.14549 8.39872 1.05338C8.3728 0.961264 8.36547 0.864918 8.37714 0.769944C8.38881 0.674971 8.41926 0.583269 8.46672 0.500177C8.51417 0.417085 8.57768 0.344263 8.65355 0.285951C8.72942 0.227639 8.81613 0.185002 8.90863 0.160523C9.24691 0.0642152 9.59699 0.0156491 9.94871 0.0162336C10.7385 0.0139401 11.5097 0.255093 12.1575 0.706858C12.8052 1.15862 13.298 1.79905 13.5688 2.54094C13.8395 3.28282 13.875 4.09012 13.6705 4.85292C13.4659 5.61571 13.0313 6.29693 12.4257 6.80383C13.4051 7.24707 14.248 7.94459 14.8666 8.82388C14.9217 8.90101 14.961 8.98834 14.9821 9.08078C15.0032 9.17323 15.0057 9.26894 14.9895 9.36236C14.9732 9.45578 14.9386 9.54505 14.8876 9.62497C14.8365 9.70488 14.7701 9.77386 14.6922 9.82789Z" fill="#00ABD1"/>
</svg>
