<svg width="18" height="19" viewBox="0 0 18 19" fill="none" xmlns="http://www.w3.org/2000/svg">
<path d="M9 0.5C4.02823 0.5 0 4.52823 0 9.5C0 14.4718 4.02823 18.5 9 18.5C13.9718 18.5 18 14.4718 18 9.5C18 4.52823 13.9718 0.5 9 0.5ZM9 3.98387C10.7637 3.98387 12.1935 5.41371 12.1935 7.17742C12.1935 8.94113 10.7637 10.371 9 10.371C7.23629 10.371 5.80645 8.94113 5.80645 7.17742C5.80645 5.41371 7.23629 3.98387 9 3.98387ZM9 16.4677C6.86976 16.4677 4.96089 15.5024 3.68347 13.9927C4.36573 12.7081 5.70121 11.8226 7.25806 11.8226C7.34516 11.8226 7.43226 11.8371 7.51573 11.8625C7.9875 12.0149 8.48105 12.1129 9 12.1129C9.51895 12.1129 10.0161 12.0149 10.4843 11.8625C10.5677 11.8371 10.6548 11.8226 10.7419 11.8226C12.2988 11.8226 13.6343 12.7081 14.3165 13.9927C13.0391 15.5024 11.1302 16.4677 9 16.4677Z" fill="white"/>
</svg>
